<?xml version="1.0" encoding="utf-8"?>
<!-- Generator: Adobe Illustrator 16.0.0, SVG Export Plug-In . SVG Version: 6.00 Build 0)  -->
<!DOCTYPE svg PUBLIC "-//W3C//DTD SVG 1.0//EN" "http://www.w3.org/TR/2001/REC-SVG-20010904/DTD/svg10.dtd">
<svg version="1.0" id="Layer_1" xmlns="http://www.w3.org/2000/svg" xmlns:xlink="http://www.w3.org/1999/xlink" x="0px" y="0px"
	 width="100px" height="100px" viewBox="0 0 100 100" enable-background="new 0 0 100 100" xml:space="preserve">
<path fill="#F9AD70" stroke="#33312F" stroke-width="2" stroke-linecap="round" stroke-linejoin="round" stroke-miterlimit="10" d="
	M29.085,49.344c-1.451,0.599-3.04,0.938-4.712,0.938h-0.004c-0.86,0-1.733-0.161-2.576-0.517l-7.189-2.976L10,48.697l9.404,9.4
	c-0.699,0.938-1.377,1.902-1.985,2.928c6.767,1.737,13.726,1.129,19.885-1.416l49.265-20.411c0.687-0.283,1.286-0.695,1.799-1.208
	c0.521-0.513,0.929-1.121,1.207-1.803C89.853,35.532,90,34.815,90,34.063c0-0.391-0.078-0.769-0.217-1.112
	c-0.157-0.356-0.365-0.673-0.635-0.943l-10.789-3.08v0.004L51.104,40.223H32.578l-3.996,1.698l9.208,3.818L29.085,49.344z"/>
<path fill="#FFFFFF" stroke="#33312F" stroke-linecap="round" stroke-linejoin="round" stroke-miterlimit="10" d="M83.389,52.224
	h-8.896c-1.225,0-2.224,0.999-2.224,2.225c0,1.225,0.999,2.224,2.224,2.224h-4.447c-1.226,0-2.225,0.999-2.225,2.224
	c0,1.233,0.999,2.224,2.225,2.224h8.896c1.225,0,2.224-0.99,2.224-2.224c0-1.225-0.999-2.224-2.224-2.224h4.447
	c1.226,0,2.225-0.999,2.225-2.224C85.613,53.223,84.614,52.224,83.389,52.224z"/>
<path fill="#FFFFFF" stroke="#33312F" stroke-linecap="round" stroke-linejoin="round" stroke-miterlimit="10" d="M38.911,74.463
	h-4.452c1.229,0,2.229-0.99,2.229-2.224c0-1.225-0.999-2.224-2.229-2.224h-8.891c-1.229,0-2.224,0.999-2.224,2.224
	c0,1.233,0.995,2.224,2.224,2.224h4.448c-1.229,0-2.224,0.999-2.224,2.224c0,1.226,0.995,2.225,2.224,2.225h8.896
	c1.225,0,2.22-0.999,2.22-2.225C41.13,75.462,40.136,74.463,38.911,74.463z"/>
<path fill="#FFFFFF" stroke="#33312F" stroke-linecap="round" stroke-linejoin="round" stroke-miterlimit="10" d="M41.135,25.537
	L41.135,25.537h-2.22c1.229-0.004,2.22-0.999,2.22-2.224c0-1.229-0.995-2.224-2.224-2.224h-8.896c-1.229,0-2.224,0.995-2.224,2.224
	c0,1.225,0.99,2.22,2.215,2.224h-6.663l0,0c-2.454,0-4.448,1.994-4.448,4.448s1.994,4.448,4.448,4.448h17.792
	c2.458,0,4.448-1.994,4.448-4.448S43.593,25.537,41.135,25.537z"/>
<path fill="none" stroke="#33312F" stroke-linecap="round" stroke-linejoin="round" stroke-miterlimit="10" d="M20.047,45.457
	l5.69-2.358L20.047,45.457z"/>
<path fill="none" stroke="#33312F" stroke-linecap="round" stroke-linejoin="round" stroke-miterlimit="10" d="M49.562,66.618
	l5.689-2.354L49.562,66.618z"/>
<path fill="none" stroke="#33312F" stroke-linecap="round" stroke-linejoin="round" stroke-miterlimit="10" d="M52.567,63.152
	l2.841-1.173L52.567,63.152z"/>
<path fill="none" stroke="#33312F" stroke-linecap="round" stroke-linejoin="round" stroke-miterlimit="10" d="M24.625,45.782
	l2.845-1.177L24.625,45.782z"/>
<polygon fill="none" stroke="#33312F" stroke-width="2" stroke-linecap="round" stroke-linejoin="round" stroke-miterlimit="10" points="
	43.976,48.297 28.582,41.921 32.578,40.223 66.197,40.223 32.578,40.223 28.582,41.921 "/>
<path fill="none" stroke="#33312F" stroke-linecap="round" stroke-linejoin="round" stroke-miterlimit="10" d="M32.469,47.937
	c-3.796,1.577-7.267,3.905-10.203,6.867C25.203,51.842,28.673,49.514,32.469,47.937z"/>
<polygon fill="#F9AD70" stroke="#33312F" stroke-width="2" stroke-linecap="round" stroke-linejoin="round" stroke-miterlimit="10" points="
	66.197,47.642 60.151,62.24 58.092,63.092 55.868,51.911 "/>
<path fill="none" stroke="#33312F" stroke-width="2" stroke-linecap="round" stroke-linejoin="round" stroke-miterlimit="10" d="
	M83.997,30.541l-5.247,2.176L83.997,30.541z"/>
<path fill="none" stroke="#33312F" stroke-linecap="round" stroke-linejoin="round" stroke-miterlimit="10" d="M74.016,34.68
	l-1.902,0.786L74.016,34.68z"/>
<path fill="none" stroke="#33312F" stroke-linecap="round" stroke-linejoin="round" stroke-miterlimit="10" d="M69.272,36.644
	l-1.894,0.786L69.272,36.644z"/>
<path fill="none" stroke="#33312F" stroke-linecap="round" stroke-linejoin="round" stroke-miterlimit="10" d="M37.977,49.609
	l-1.894,0.782L37.977,49.609z"/>
<path fill="none" stroke="#33312F" stroke-linecap="round" stroke-linejoin="round" stroke-miterlimit="10" d="M33.238,51.568
	l-1.898,0.786L33.238,51.568z"/>
<path fill="#F3807E" stroke="#33312F" stroke-linecap="round" stroke-linejoin="round" stroke-miterlimit="10" d="M89.574,36.188
	c0.183-0.43,0.287-0.895,0.356-1.368c-2.154,0.013-4.335,0.425-6.446,1.29v0.009L28.821,58.766l0,0
	c-3.735,1.537-7.602,2.275-11.402,2.259c6.767,1.737,13.726,1.129,19.885-1.416l49.265-20.411c0.687-0.283,1.286-0.695,1.799-1.208
	C88.888,37.478,89.296,36.869,89.574,36.188z"/>
</svg>
